<svg width="223" height="130" viewBox="0 0 223 130" fill="none" xmlns="http://www.w3.org/2000/svg">
<g clip-path="url(#clip0)">
<path d="M12.518 121.797C12.2496 121.802 11.9899 121.894 11.7772 122.057C11.1458 120.389 10.1684 119.316 9.07029 119.316C7.9722 119.316 6.99478 120.389 6.3634 122.057C6.15065 121.894 5.89103 121.802 5.62259 121.797C4.37507 121.797 3.36375 123.907 3.36375 126.509H14.7768C14.7768 123.907 13.7655 121.797 12.518 121.797Z" fill="#00BAFC"/>
<path d="M57.8659 126.246H0V126.772H57.8659V126.246Z" fill="#3F3D56"/>
<path d="M218.205 110.743C217.937 110.748 217.677 110.84 217.464 111.003C216.833 109.335 215.855 108.263 214.757 108.263C213.659 108.263 212.682 109.335 212.05 111.003C211.838 110.84 211.578 110.748 211.31 110.743C210.062 110.743 209.051 112.853 209.051 115.455H220.464C220.464 112.853 219.453 110.743 218.205 110.743Z" fill="#00BAFC"/>
<path d="M193.648 24.1599H138.547V23.0242H113.561V24.1599H58.2328C57.7433 24.1599 57.2587 24.2563 56.8065 24.4436C56.3543 24.6309 55.9434 24.9055 55.5973 25.2516C55.2512 25.5977 54.9766 26.0085 54.7893 26.4607C54.602 26.9129 54.5056 27.3976 54.5056 27.8871V103.338C54.5056 104.326 54.8983 105.274 55.5973 105.973C56.2963 106.672 57.2443 107.065 58.2328 107.065H193.648C194.636 107.065 195.584 106.672 196.283 105.973C196.982 105.274 197.375 104.326 197.375 103.338V27.8871C197.375 27.3976 197.279 26.9129 197.091 26.4607C196.904 26.0085 196.63 25.5977 196.283 25.2516C195.937 24.9055 195.526 24.6309 195.074 24.4436C194.622 24.2563 194.137 24.1599 193.648 24.1599Z" fill="#3F3D56"/>
<path opacity="0.2" d="M192.377 30.7458H59.5038V105.703H192.377V30.7458Z" fill="black"/>
<path d="M125.827 28.7026C126.58 28.7026 127.19 28.0925 127.19 27.3398C127.19 26.5871 126.58 25.977 125.827 25.977C125.074 25.977 124.464 26.5871 124.464 27.3398C124.464 28.0925 125.074 28.7026 125.827 28.7026Z" fill="#00BAFC"/>
<path d="M222.126 114.929H29.3276V115.455H222.126V114.929Z" fill="#3F3D56"/>
<path d="M144.095 58.7512V53.2055C144.095 52.312 143.919 51.4272 143.577 50.6017C143.235 49.7762 142.734 49.0261 142.102 48.3942C141.47 47.7624 140.72 47.2612 139.894 46.9193C139.069 46.5773 138.184 46.4013 137.29 46.4013H131.745C131.745 45.6527 129.339 45.0394 126.282 44.9813V38.2936C127.241 38.1728 128.118 37.691 128.735 36.9464C129.351 36.2017 129.66 35.2502 129.6 34.2855C129.539 33.3208 129.113 32.4154 128.409 31.7536C127.704 31.0919 126.774 30.7235 125.807 30.7235C124.841 30.7235 123.91 31.0919 123.206 31.7536C122.501 32.4154 122.075 33.3208 122.015 34.2855C121.954 35.2502 122.264 36.2017 122.88 36.9464C123.496 37.691 124.373 38.1728 125.332 38.2936V44.9813C122.276 45.0394 119.87 45.6527 119.87 46.4013H113.374C112.481 46.4013 111.596 46.5773 110.77 46.9193C109.945 47.2612 109.195 47.7624 108.563 48.3942C107.931 49.0261 107.43 49.7762 107.088 50.6017C106.746 51.4272 106.57 52.312 106.57 53.2055V58.7512C105.783 58.7512 105.145 61.4094 105.145 64.6886C105.145 67.9678 105.783 70.626 106.57 70.626V77.1216C106.57 78.0152 106.746 78.9 107.088 79.7255C107.43 80.551 107.931 81.3011 108.563 81.9329C109.195 82.5648 109.945 83.066 110.77 83.4079C111.596 83.7499 112.481 83.9259 113.374 83.9259H137.29C138.184 83.9259 139.069 83.7499 139.894 83.4079C140.72 83.066 141.47 82.5648 142.102 81.9329C142.734 81.3011 143.235 80.551 143.577 79.7255C143.919 78.9 144.095 78.0152 144.095 77.1216V70.626C144.882 70.626 145.52 67.9677 145.52 64.6886C145.52 61.4094 144.882 58.7512 144.095 58.7512Z" fill="#00BAFC"/>
<path d="M114.737 48.5388H135.928C137.527 48.5388 139.061 49.174 140.191 50.3047C141.322 51.4353 141.957 52.9688 141.957 54.5678V75.7593C141.957 77.3583 141.322 78.8918 140.191 80.0225C139.061 81.1532 137.527 81.7884 135.928 81.7884H114.737C113.138 81.7884 111.604 81.1532 110.473 80.0225C109.343 78.8918 108.708 77.3583 108.708 75.7593V54.5679C108.708 52.9688 109.343 51.4353 110.473 50.3047C111.604 49.174 113.138 48.5388 114.737 48.5388Z" fill="#3F3D56"/>
<path d="M117.732 64.3324C116.599 64.3311 115.513 63.8803 114.711 63.0788C113.91 62.2774 113.459 61.1908 113.458 60.0574C113.458 59.9944 113.483 59.934 113.527 59.8895C113.572 59.8449 113.632 59.8199 113.695 59.8199C113.758 59.8199 113.818 59.8449 113.863 59.8895C113.908 59.934 113.933 59.9944 113.933 60.0574C113.933 61.0652 114.333 62.0318 115.046 62.7444C115.758 63.457 116.725 63.8574 117.732 63.8574C118.74 63.8574 119.707 63.457 120.419 62.7444C121.132 62.0318 121.532 61.0652 121.532 60.0574C121.532 59.9944 121.557 59.934 121.602 59.8895C121.647 59.8449 121.707 59.8199 121.77 59.8199C121.833 59.8199 121.893 59.8449 121.938 59.8895C121.982 59.934 122.007 59.9944 122.007 60.0574C122.006 61.1908 121.555 62.2774 120.754 63.0788C119.952 63.8803 118.866 64.3311 117.732 64.3324Z" fill="#00BAFC"/>
<path d="M125.332 72.4073C124.451 72.4063 123.606 72.0556 122.982 71.4323C122.359 70.809 122.008 69.9638 122.007 69.0823C122.007 69.0193 122.032 68.9589 122.077 68.9144C122.122 68.8698 122.182 68.8448 122.245 68.8448C122.308 68.8448 122.368 68.8698 122.413 68.9144C122.457 68.9589 122.482 69.0193 122.482 69.0823C122.482 69.8382 122.783 70.5631 123.317 71.0975C123.852 71.632 124.577 71.9323 125.332 71.9323C126.088 71.9323 126.813 71.632 127.348 71.0975C127.882 70.5631 128.182 69.8382 128.182 69.0823C128.182 69.0193 128.207 68.9589 128.252 68.9144C128.296 68.8698 128.357 68.8448 128.42 68.8448C128.483 68.8448 128.543 68.8698 128.588 68.9144C128.632 68.9589 128.657 69.0193 128.657 69.0823C128.656 69.9638 128.306 70.809 127.682 71.4323C127.059 72.0556 126.214 72.4063 125.332 72.4073Z" fill="#00BAFC"/>
<path d="M132.932 64.3324C131.799 64.3311 130.712 63.8803 129.911 63.0788C129.109 62.2774 128.659 61.1908 128.657 60.0574C128.657 59.9944 128.682 59.934 128.727 59.8895C128.771 59.8449 128.832 59.8199 128.895 59.8199C128.958 59.8199 129.018 59.8449 129.063 59.8895C129.107 59.934 129.132 59.9944 129.132 60.0574C129.132 61.0652 129.533 62.0318 130.245 62.7444C130.958 63.457 131.924 63.8574 132.932 63.8574C133.94 63.8574 134.907 63.457 135.619 62.7444C136.332 62.0318 136.732 61.0652 136.732 60.0574C136.732 59.9944 136.757 59.934 136.802 59.8895C136.846 59.8449 136.907 59.8199 136.97 59.8199C137.033 59.8199 137.093 59.8449 137.138 59.8895C137.182 59.934 137.207 59.9944 137.207 60.0574C137.206 61.1908 136.755 62.2774 135.954 63.0788C135.152 63.8803 134.066 64.3311 132.932 64.3324Z" fill="#00BAFC"/>
<path d="M117.732 62.4324C118.913 62.4324 119.87 61.4754 119.87 60.2949C119.87 59.1144 118.913 58.1574 117.732 58.1574C116.552 58.1574 115.595 59.1144 115.595 60.2949C115.595 61.4754 116.552 62.4324 117.732 62.4324Z" fill="#00BAFC"/>
<path d="M132.932 62.4324C134.113 62.4324 135.07 61.4754 135.07 60.2949C135.07 59.1144 134.113 58.1574 132.932 58.1574C131.752 58.1574 130.795 59.1144 130.795 60.2949C130.795 61.4754 131.752 62.4324 132.932 62.4324Z" fill="#00BAFC"/>
<path d="M125.332 71.2198C126.382 71.2198 127.232 70.7944 127.232 70.2698C127.232 69.7451 126.382 69.3198 125.332 69.3198C124.283 69.3198 123.432 69.7451 123.432 70.2698C123.432 70.7944 124.283 71.2198 125.332 71.2198Z" fill="#00BAFC"/>
<path d="M201.106 104.339H188.138V103.405C188.138 103.381 188.133 103.357 188.124 103.334C188.115 103.312 188.101 103.291 188.084 103.274C188.067 103.257 188.046 103.243 188.024 103.234C188.001 103.225 187.977 103.22 187.953 103.22H183.507C183.483 103.22 183.458 103.225 183.436 103.234C183.414 103.243 183.393 103.257 183.376 103.274C183.359 103.291 183.345 103.312 183.336 103.334C183.326 103.357 183.322 103.381 183.322 103.405V104.339H180.543V103.405C180.543 103.381 180.538 103.357 180.529 103.334C180.519 103.312 180.506 103.291 180.489 103.274C180.471 103.257 180.451 103.243 180.428 103.234C180.406 103.225 180.382 103.22 180.358 103.22H175.911C175.887 103.22 175.863 103.225 175.841 103.234C175.818 103.243 175.798 103.257 175.78 103.274C175.763 103.291 175.75 103.312 175.74 103.334C175.731 103.357 175.726 103.381 175.726 103.405V104.339H172.947V103.405C172.947 103.381 172.943 103.357 172.933 103.334C172.924 103.312 172.91 103.291 172.893 103.274C172.876 103.257 172.856 103.243 172.833 103.234C172.811 103.225 172.786 103.22 172.762 103.22H168.316C168.292 103.22 168.268 103.225 168.245 103.234C168.223 103.243 168.202 103.257 168.185 103.274C168.168 103.291 168.154 103.312 168.145 103.334C168.136 103.357 168.131 103.381 168.131 103.405V104.339H165.352V103.405C165.352 103.381 165.347 103.357 165.338 103.334C165.329 103.312 165.315 103.291 165.298 103.274C165.281 103.257 165.26 103.243 165.238 103.234C165.215 103.225 165.191 103.22 165.167 103.22H160.721C160.696 103.22 160.672 103.225 160.65 103.234C160.627 103.243 160.607 103.257 160.59 103.274C160.572 103.291 160.559 103.312 160.549 103.334C160.54 103.357 160.535 103.381 160.535 103.405V104.339H157.757V103.405C157.757 103.381 157.752 103.357 157.742 103.334C157.733 103.312 157.72 103.291 157.702 103.274C157.685 103.257 157.665 103.243 157.642 103.234C157.62 103.225 157.596 103.22 157.571 103.22H153.125C153.101 103.22 153.077 103.225 153.054 103.234C153.032 103.243 153.011 103.257 152.994 103.274C152.977 103.291 152.963 103.312 152.954 103.334C152.945 103.357 152.94 103.381 152.94 103.405V104.339H150.161V103.405C150.161 103.381 150.156 103.357 150.147 103.334C150.138 103.312 150.124 103.291 150.107 103.274C150.09 103.257 150.069 103.243 150.047 103.234C150.024 103.225 150 103.22 149.976 103.22H145.53C145.505 103.22 145.481 103.225 145.459 103.234C145.436 103.243 145.416 103.257 145.399 103.274C145.382 103.291 145.368 103.312 145.359 103.334C145.349 103.357 145.345 103.381 145.345 103.405V104.339H142.566V103.405C142.566 103.381 142.561 103.357 142.552 103.334C142.542 103.312 142.529 103.291 142.511 103.274C142.494 103.257 142.474 103.243 142.451 103.234C142.429 103.225 142.405 103.22 142.38 103.22H107.553C107.528 103.22 107.504 103.225 107.482 103.234C107.459 103.243 107.439 103.257 107.422 103.274C107.405 103.291 107.391 103.312 107.382 103.334C107.372 103.357 107.367 103.381 107.367 103.405V104.339H104.589V103.405C104.589 103.381 104.584 103.357 104.575 103.334C104.565 103.312 104.552 103.291 104.534 103.274C104.517 103.257 104.497 103.243 104.474 103.234C104.452 103.225 104.428 103.22 104.403 103.22H99.9573C99.933 103.22 99.9089 103.225 99.8864 103.234C99.864 103.243 99.8435 103.257 99.8263 103.274C99.8091 103.291 99.7955 103.312 99.7862 103.334C99.7768 103.357 99.7721 103.381 99.7721 103.405V104.339H96.9932V103.405C96.9932 103.381 96.9885 103.357 96.9791 103.334C96.9698 103.312 96.9562 103.291 96.939 103.274C96.9218 103.257 96.9014 103.243 96.8789 103.234C96.8564 103.225 96.8323 103.22 96.808 103.22H92.3619C92.3376 103.22 92.3135 103.225 92.291 103.234C92.2685 103.243 92.2481 103.257 92.2309 103.274C92.2137 103.291 92.2001 103.312 92.1907 103.334C92.1814 103.357 92.1766 103.381 92.1766 103.405V104.339H89.3978V103.405C89.3978 103.381 89.393 103.357 89.3837 103.334C89.3744 103.312 89.3608 103.291 89.3436 103.274C89.3264 103.257 89.306 103.243 89.2835 103.234C89.261 103.225 89.2369 103.22 89.2126 103.22H84.7665C84.7422 103.22 84.7181 103.225 84.6956 103.234C84.6731 103.243 84.6527 103.257 84.6355 103.274C84.6183 103.291 84.6046 103.312 84.5953 103.334C84.586 103.357 84.5812 103.381 84.5812 103.405V104.339H81.8024V103.405C81.8024 103.381 81.7976 103.357 81.7883 103.334C81.779 103.312 81.7654 103.291 81.7482 103.274C81.731 103.257 81.7105 103.243 81.6881 103.234C81.6656 103.225 81.6415 103.22 81.6172 103.22H77.1711C77.1467 103.22 77.1226 103.225 77.1002 103.234C77.0777 103.243 77.0573 103.257 77.0401 103.274C77.0229 103.291 77.0092 103.312 76.9999 103.334C76.9906 103.357 76.9858 103.381 76.9858 103.405V104.339H74.207V103.405C74.207 103.381 74.2022 103.357 74.1929 103.334C74.1836 103.312 74.1699 103.291 74.1527 103.274C74.1355 103.257 74.1151 103.243 74.0926 103.234C74.0702 103.225 74.0461 103.22 74.0218 103.22H69.5756C69.5513 103.22 69.5272 103.225 69.5048 103.234C69.4823 103.243 69.4619 103.257 69.4447 103.274C69.4275 103.291 69.4138 103.312 69.4045 103.334C69.3952 103.357 69.3904 103.381 69.3904 103.405V104.339H66.6116V103.405C66.6116 103.381 66.6068 103.357 66.5975 103.334C66.5882 103.312 66.5745 103.291 66.5573 103.274C66.5401 103.257 66.5197 103.243 66.4972 103.234C66.4748 103.225 66.4507 103.22 66.4263 103.22H61.9802C61.9559 103.22 61.9318 103.225 61.9093 103.234C61.8869 103.243 61.8664 103.257 61.8492 103.274C61.832 103.291 61.8184 103.312 61.8091 103.334C61.7998 103.357 61.795 103.381 61.795 103.405V104.339H53.2733C52.6894 104.339 52.1113 104.454 51.5718 104.678C51.0324 104.901 50.5423 105.229 50.1294 105.642C49.7166 106.055 49.3891 106.545 49.1656 107.084C48.9422 107.624 48.8272 108.202 48.8272 108.786V110.796C48.8272 111.975 49.2956 113.106 50.1294 113.94C50.9632 114.774 52.0941 115.242 53.2733 115.242H201.106C202.285 115.242 203.416 114.774 204.25 113.94C205.084 113.106 205.552 111.975 205.552 110.796V108.786C205.552 108.202 205.437 107.624 205.214 107.084C204.99 106.545 204.663 106.055 204.25 105.642C203.837 105.229 203.347 104.901 202.807 104.678C202.268 104.454 201.69 104.339 201.106 104.339Z" fill="#3F3D56"/>
<path d="M168.469 83.6289H79.8287V84.1549H168.469V83.6289Z" fill="#00BAFC"/>
<path d="M86.1414 83.3659H64.3102C65.0088 75.1392 65.0088 66.868 64.3102 58.6413H86.1414C84.9394 67.1093 84.8691 75.3641 86.1414 83.3659Z" fill="#D0CDE1"/>
<path d="M83.2481 63.6388H67.4665V64.691H83.2481V63.6388Z" fill="#3F3D56"/>
<path d="M83.2481 67.0582H67.4665V68.1103H83.2481V67.0582Z" fill="#3F3D56"/>
<path d="M83.2481 70.4775H67.4665V71.5296H83.2481V70.4775Z" fill="#3F3D56"/>
<path d="M83.2481 73.8969H67.4665V74.949H83.2481V73.8969Z" fill="#3F3D56"/>
<path d="M83.2481 77.3162H67.4665V78.3683H83.2481V77.3162Z" fill="#3F3D56"/>
<path d="M28.1292 0.843624C28.1292 0.843624 24.699 -0.38144 22.4939 4.51881C20.2888 9.41906 16.8586 14.8093 16.8586 14.8093L18.8187 15.2994C18.8187 15.2994 19.3088 11.8692 20.5338 11.3792L20.0438 15.7894C20.0438 15.7894 34.7446 20.9346 41.3599 15.2994L41.1149 13.5843C41.1149 13.5843 42.0949 13.8293 42.0949 15.2994L42.83 14.5643C42.83 14.5643 42.0949 13.0942 39.8898 11.1341C38.4425 9.84762 37.9451 7.40003 37.7742 5.86975C37.6461 4.59195 37.1349 3.38268 36.3075 2.40053C34.8421 0.702209 32.1719 -1.10286 28.1292 0.843624Z" fill="#2F2E41"/>
<path d="M18.237 108.929L19.2891 114.979L23.4975 114.189L24.2866 108.929H18.237Z" fill="#FFB9B9"/>
<path d="M24.2866 112.348L18.5 112.874L18.763 117.609L18.5 123.658C18.5 123.658 15.0806 130.497 20.0781 129.971C25.0756 129.445 24.5496 126.815 24.5496 126.815L25.8647 125.237L25.0756 121.291L24.2866 112.348Z" fill="#2F2E41"/>
<path d="M41.9094 108.929L40.8573 114.979L36.6489 114.189L35.8598 108.929H41.9094Z" fill="#FFB9B9"/>
<path d="M35.8598 112.348L41.6464 112.874L41.3833 117.609L41.6464 123.658C41.6464 123.658 45.0657 130.497 40.0682 129.971C35.0707 129.445 35.5967 126.815 35.5967 126.815L34.2816 125.237L35.0707 121.291L35.8598 112.348Z" fill="#2F2E41"/>
<path d="M29.8102 17.1326C33.1513 17.1326 35.8598 14.4241 35.8598 11.083C35.8598 7.74185 33.1513 5.03334 29.8102 5.03334C26.469 5.03334 23.7605 7.74185 23.7605 11.083C23.7605 14.4241 26.469 17.1326 29.8102 17.1326Z" fill="#FFB9B9"/>
<path d="M25.8647 14.2393L26.6538 23.7082L34.0186 23.4452C34.0186 23.4452 31.9144 17.3956 33.2295 15.0284L25.8647 14.2393Z" fill="#FFB9B9"/>
<path d="M30.0732 21.8671L33.1027 19.9776L36.3858 21.604L41.6464 23.9713L39.8052 46.3286C39.8052 46.3286 44.0136 60.269 43.2245 67.1077C42.4355 73.9464 51.9044 108.14 44.2766 109.718C36.6489 111.296 31.1253 112.874 30.8623 110.244C30.5992 107.614 30.0732 67.3707 30.0732 67.3707C30.0732 67.3707 29.2841 109.981 26.1278 110.507C22.9715 111.033 9.29407 113.137 10.3462 109.981C11.3983 106.825 18.5 51.5891 21.9194 48.4328L22.4454 45.8025L17.974 24.4973L26.3709 20.3124L30.0732 21.8671Z" fill="#2F2E41"/>
<path d="M14.2915 54.4824L14.0285 65.2665C14.0285 65.2665 11.4966 75.9135 15.7873 75.8506C20.0781 75.7876 16.9218 65.2665 16.9218 65.2665L18.763 54.7454L14.2915 54.4824Z" fill="#FFB9B9"/>
<path d="M54.0646 43.1641L61.4566 51.0206C61.4566 51.0206 70.4469 57.261 67.2091 60.0773C63.9714 62.8935 59.3016 52.9513 59.3016 52.9513L50.9098 46.3437L54.0646 43.1641Z" fill="#FFB9B9"/>
<path d="M22.0509 47.7751L40.0656 47.2228L39.8315 45.9997V45.9944L22.4191 45.6788L22.0509 47.7751Z" fill="#D0CDE1"/>
<path d="M25.7333 48.3013C26.6048 48.3013 27.3114 47.5947 27.3114 46.7231C27.3114 45.8515 26.6048 45.1449 25.7333 45.1449C24.8617 45.1449 24.1551 45.8515 24.1551 46.7231C24.1551 47.5947 24.8617 48.3013 25.7333 48.3013Z" fill="#2F2E41"/>
<path d="M20.0781 24.7604L18.3685 24.3658C18.3685 24.3658 16.1327 25.2864 15.6067 28.1797C15.0806 31.073 8.24193 53.6933 11.6613 55.0085C15.0806 56.3236 20.0781 56.8496 20.0781 56.3236C20.0781 55.7975 22.1823 36.0705 22.1823 36.0705L20.0781 24.7604Z" fill="#2F2E41"/>
<path d="M36.1663 25.763L41.6463 23.9713C41.6463 23.9713 44.2766 23.9713 44.2766 26.8646C44.2766 28.0581 49.3176 37.8622 49.3176 37.8622C49.3176 37.8622 61.4299 46.4961 59.5757 46.8051C56.4193 47.3312 54.5781 52.8547 54.5781 52.8547L42.7419 42.3336L36.1663 25.763Z" fill="#2F2E41"/>
<path d="M22.4319 11.5335C22.4319 11.5335 24.392 8.83834 26.1071 8.34832C27.8222 7.85829 28.0672 5.40817 28.0672 5.40817C28.0672 5.40817 32.4774 10.3084 35.1725 10.5534C37.8677 10.7984 35.4176 4.67312 35.4176 4.67312L30.5173 3.44806L25.8621 3.93808L22.1869 6.3882L22.4319 11.5335Z" fill="#2F2E41"/>
<path d="M23.8921 11.346C24.3279 11.346 24.6811 10.816 24.6811 10.1624C24.6811 9.50865 24.3279 8.97873 23.8921 8.97873C23.4563 8.97873 23.103 9.50865 23.103 10.1624C23.103 10.816 23.4563 11.346 23.8921 11.346Z" fill="#FFB9B9"/>
</g>
<defs>
<clipPath id="clip0">
<rect width="222.126" height="130" fill="white"/>
</clipPath>
</defs>
</svg>
